Coordinates
version=1
nRows=27
nColumns=12
inDegrees=yes

Units are S.I. units (second, meters, Newtons, ...)
Angles are in degrees

endheader
time	SC_y	SC_z	SC_x	AC_y	AC_z	AC_x	GH_y	GH_z	GH_yy	EL_x	PS_y
       0.0              -18.04          7.938           68.4          59.91          3.878         -2.684          37.63          29.59          41.21          77.51          149.3
   0.04838              -18.05          7.942          68.39          59.91          3.877         -2.685           37.6          29.59           41.2           77.5          149.3
   0.09677              -18.06          7.947          68.39          59.91          3.876         -2.686          37.58          29.59          41.19           77.5          149.3
    0.1452              -18.06          7.952          68.38          59.91          3.875         -2.687          37.55          29.59          41.18          77.49          149.3
    0.1935              -18.07          7.957          68.38          59.91          3.874         -2.689          37.52          29.59          41.17          77.48          149.3
    0.2419              -18.08          7.962          68.37          59.91          3.873          -2.69          37.48          29.59          41.16          77.48          149.2
    0.2903              -18.09          7.968          68.36          59.91          3.871         -2.692          37.45          29.59          41.15          77.47          149.2
    0.3387              -18.09          7.975          68.36          59.91           3.87         -2.693          37.41          29.59          41.14          77.46          149.2
    0.3871               -18.1          7.981          68.35          59.91          3.868         -2.695          37.37          29.59          41.12          77.45          149.2
    0.4355              -18.11          7.989          68.34          59.91          3.866         -2.697          37.33          29.59          41.11          77.44          149.2
    0.4838              -18.12          7.996          68.33          59.91          3.864         -2.699          37.28          29.59           41.1          77.43          149.2
    0.5322              -18.14          8.005          68.33          59.91          3.862         -2.702          37.23          29.59          41.08          77.41          149.2
    0.5806              -18.15          8.014          68.32          59.91           3.86         -2.704          37.18          29.59          41.06           77.4          149.1
     0.629              -18.16          8.024          68.31          59.91          3.858         -2.707          37.12          29.59          41.05          77.39          149.1
    0.6774              -18.18          8.034           68.3          59.91          3.855         -2.709          37.06          29.59          41.03          77.37          149.1
    0.7258              -18.19          8.046          68.28          59.91          3.852         -2.712          36.99          29.59           41.0          77.35          149.1
    0.7741              -18.21          8.058          68.27          59.91          3.849         -2.716          36.92          29.59          40.98          77.34          149.1
    0.8225              -18.23          8.072          68.26          59.91          3.846         -2.719          36.84          29.59          40.95          77.32          149.0
    0.8709              -18.25          8.086          68.24          59.91          3.842         -2.723          36.75          29.59          40.93           77.3          149.0
    0.9193              -18.27          8.103          68.23          59.91          3.839         -2.728          36.66          29.59           40.9          77.27          149.0
    0.9677               -18.3           8.12          68.21          59.91          3.834         -2.733          36.55          29.59          40.86          77.25          148.9
     1.016              -18.32           8.14          68.19          59.91          3.829         -2.738          36.44          29.59          40.83          77.22          148.9
     1.064              -18.35          8.162          68.16          59.91          3.824         -2.744          36.31          29.59          40.78          77.19          148.9
     1.113              -18.39          8.186          68.14          59.91          3.818          -2.75          36.17          29.59          40.74          77.15          148.8
     1.161              -18.43          8.212          68.11          59.92          3.812         -2.757          36.01           29.6          40.69          77.11          148.8
      1.21              -18.47          8.242          68.08          59.92          3.805         -2.765          35.83           29.6          40.63          77.07          148.7
     1.258              -18.51          8.275          68.05          59.92          3.797         -2.774          35.64           29.6          40.57          77.02          148.6
